<svg width="24" height="16" viewBox="0 0 24 16" fill="none" xmlns="http://www.w3.org/2000/svg">
<path d="M23.1844 7.7C23.1563 7.625 22.3594 5.8625 20.5969 4.09063C18.2438 1.74688 15.2719 0.5 12.0001 0.5C8.72818 0.5 5.7563 1.74688 3.40318 4.09063C1.64068 5.8625 0.843802 7.625 0.815677 7.7C0.773821 7.79448 0.752197 7.89667 0.752197 8C0.752197 8.10333 0.773821 8.20552 0.815677 8.3C0.843802 8.375 1.64068 10.1375 3.40318 11.9094C5.7563 14.2531 8.72818 15.5 12.0001 15.5C15.2719 15.5 18.2438 14.2531 20.5969 11.9094C22.3594 10.1375 23.1563 8.375 23.1844 8.3C23.2263 8.20552 23.2479 8.10333 23.2479 8C23.2479 7.89667 23.2263 7.79448 23.1844 7.7V7.7ZM12.0001 4.625C12.6676 4.625 13.3201 4.82294 13.8751 5.19379C14.4301 5.56464 14.8627 6.09174 15.1181 6.70844C15.3736 7.32514 15.4404 8.00374 15.3102 8.65843C15.18 9.31312 14.8585 9.91448 14.3865 10.3865C13.9145 10.8585 13.3132 11.1799 12.6585 11.3102C12.0038 11.4404 11.3252 11.3735 10.7085 11.1181C10.0918 10.8626 9.56469 10.4301 9.19384 9.87505C8.82299 9.32003 8.62505 8.66751 8.62505 8C8.62505 7.10489 8.98063 6.24645 9.61357 5.61351C10.2465 4.98058 11.1049 4.625 12.0001 4.625V4.625Z" fill="#696969"/>
</svg>
