<svg width="24" height="24" viewBox="0 0 24 24" fill="none" xmlns="http://www.w3.org/2000/svg">
<path d="M23.1843 11.7C23.1561 11.625 22.3593 9.86252 20.5968 8.09065C18.2436 5.7469 15.2718 4.50002 11.9999 4.50002C11.3089 4.49876 10.619 4.55521 9.93739 4.66877C9.80569 4.69345 9.68287 4.75253 9.58139 4.84003C9.4799 4.92752 9.40338 5.04031 9.35958 5.16694C9.31579 5.29357 9.30627 5.42954 9.33201 5.56103C9.35776 5.69253 9.41783 5.81487 9.50614 5.91565L19.003 16.3594C19.0733 16.4362 19.1587 16.4975 19.2539 16.5395C19.3492 16.5814 19.4521 16.6031 19.5561 16.6031C19.7414 16.6007 19.9202 16.5345 20.0624 16.4156C22.1999 14.4938 23.1468 12.3938 23.1843 12.3094C23.2258 12.2132 23.2472 12.1095 23.2472 12.0047C23.2472 11.8999 23.2258 11.7962 23.1843 11.7V11.7Z" fill="#101010"/>
<path d="M5.05339 3.24373C4.91789 3.10198 4.73226 3.01893 4.53627 3.01238C4.34027 3.00583 4.14951 3.07631 4.00486 3.20871C3.8602 3.34111 3.77315 3.5249 3.76236 3.7207C3.75157 3.9165 3.8179 4.10874 3.94714 4.25624L5.74714 6.23436C2.34401 8.32499 0.881513 11.55 0.815888 11.7C0.774354 11.7962 0.75293 11.8999 0.75293 12.0047C0.75293 12.1095 0.774354 12.2132 0.815888 12.3094C0.844013 12.375 1.64089 14.1375 3.40339 15.9094C5.75651 18.2531 8.72839 19.5 12.0003 19.5C13.6816 19.5114 15.3464 19.1664 16.8846 18.4875L18.9471 20.7562C19.0174 20.833 19.1028 20.8943 19.1981 20.9363C19.2933 20.9783 19.3962 21 19.5003 21C19.6873 20.9982 19.8673 20.9282 20.0065 20.8031C20.0802 20.7373 20.14 20.6574 20.1824 20.5681C20.2248 20.4789 20.2489 20.382 20.2532 20.2833C20.2576 20.1846 20.2422 20.086 20.2079 19.9933C20.1735 19.9007 20.121 19.8158 20.0534 19.7437L5.05339 3.24373ZM12.0003 15.375C11.3835 15.3746 10.7786 15.2052 10.2514 14.8852C9.72413 14.5652 9.29465 14.1068 9.00959 13.5599C8.72452 13.0129 8.59478 12.3984 8.63446 11.7829C8.67414 11.1674 8.88171 10.5745 9.23464 10.0687L13.6596 14.9344C13.1547 15.2242 12.5825 15.3762 12.0003 15.375V15.375Z" fill="#101010"/>
</svg>
