<svg width="24" height="24" viewBox="0 0 24 24" fill="none" xmlns="http://www.w3.org/2000/svg">
<g clip-path="url(#clip0_487_10869)">
<path d="M2.18182 0C0.976364 0 0 0.976364 0 2.18182V21.8182C0 23.0236 0.976364 24 2.18182 24H21.8182C23.0236 24 24 23.0236 24 21.8182V2.18182C24 0.976364 23.0236 0 21.8182 0H2.18182ZM11.9979 3.27273C14.5364 3.27273 16.6001 5.33755 16.6001 7.875C16.6001 10.4125 14.5353 12.473 11.9979 12.473C9.46041 12.473 7.39773 10.4092 7.39773 7.87287C7.39773 5.33541 9.46041 3.27164 11.9979 3.27273ZM11.9979 6.02131C10.9779 6.02131 10.1484 6.85178 10.1484 7.87287C10.1484 8.89287 10.9779 9.7223 11.9979 9.7223C13.019 9.7223 13.8494 8.89287 13.8494 7.87287C13.8494 6.85178 13.019 6.02131 11.9979 6.02131ZM8.50355 12.5114C8.67157 12.5387 8.83607 12.6002 8.98935 12.6967C10.8188 13.8487 13.179 13.8487 15.0107 12.6967C15.6227 12.3106 16.4303 12.4949 16.8153 13.108C17.1993 13.721 17.0172 14.5318 16.4041 14.9169C15.5958 15.4242 14.7166 15.7835 13.8068 15.9908L16.3082 18.4922C16.8199 19.0027 16.8199 19.8321 16.3082 20.3438C15.7966 20.8554 14.9683 20.8554 14.4567 20.3438L12 17.8871L9.54332 20.3438C9.28696 20.6001 8.95139 20.7273 8.61648 20.7273C8.28157 20.7273 7.94813 20.6001 7.69176 20.3438C7.18013 19.8332 7.17909 19.0017 7.68963 18.4901L10.1911 15.9908C9.28014 15.7835 8.40211 15.422 7.59375 14.9148C6.98175 14.5297 6.79848 13.721 7.18466 13.108C7.47348 12.6481 7.9995 12.4293 8.50355 12.5114Z" fill="#EE8208"/>
</g>
<defs>
<clipPath id="clip0_487_10869">
<rect width="24" height="24" rx="6" fill="white"/>
</clipPath>
</defs>
</svg>
